<svg width="48" height="48" viewBox="0 0 48 48" fill="none" xmlns="http://www.w3.org/2000/svg">
<path d="M35.8438 31.009C34.4873 30.9903 32.4408 30.0506 30.6598 28.5989C29.2783 27.4719 28.0514 26.1513 26.7745 24.8947C26.2719 24.3983 26.1501 23.802 26.6356 23.2166C28.4916 21.0157 30.5224 19.002 33.1917 17.7923C36.0779 16.4826 38.9049 16.4826 41.4649 18.5727C43.7907 20.4803 44.5774 23.5944 43.5425 26.4088C42.5076 29.2233 39.8774 31.0262 35.8438 31.009Z" fill="#F25278"/>
<path d="M31.09 36.3512C30.9511 39.7245 29.7023 41.9161 27.1205 43.1961C24.5699 44.4605 22.0442 44.2185 19.773 42.5155C17.469 40.7875 16.6214 38.3945 17.0678 35.5629C17.3956 33.4728 18.404 31.6839 19.7652 30.1167C20.8017 28.9241 21.9661 27.8392 23.0916 26.7278C23.6005 26.2267 24.2015 26.1284 24.7728 26.6154C27.044 28.551 29.1435 30.6474 30.2955 33.465C30.7295 34.528 30.9105 35.6956 31.09 36.3512Z" fill="#F25278"/>
<path d="M31.0382 12.1376C31.0241 13.4566 30.1016 15.5093 28.6405 17.2888C27.4948 18.6937 26.1585 19.9425 24.8801 21.2287C24.3743 21.7392 23.764 21.7844 23.199 21.3005C21.1104 19.5179 19.1951 17.5792 17.9603 15.0847C16.9051 12.954 16.5476 10.7421 17.4405 8.45684C18.6893 5.27088 21.9752 3.48825 25.375 4.12981C28.6717 4.75264 31.0475 7.6701 31.0382 12.1376Z" fill="#F25278"/>
<path d="M11.1191 16.922C13.1409 16.9234 15.102 17.6132 16.6793 18.8779C18.3043 20.1564 19.7575 21.6549 21.2561 23.0926C21.7759 23.589 21.8118 24.2087 21.3294 24.7722C19.5608 26.8358 17.644 28.7324 15.1823 29.9749C13.445 30.8506 11.6233 31.2721 9.67832 30.8756C7.96542 30.533 6.44056 29.567 5.39898 28.1647C4.3574 26.7623 3.8732 25.0234 4.0401 23.2846C4.21511 21.5327 5.03793 19.9092 6.34738 18.7323C7.65683 17.5554 9.35852 16.9098 11.1191 16.922Z" fill="#F25278"/>
</svg>
