<svg width="48" height="48" viewBox="0 0 48 48" fill="none" xmlns="http://www.w3.org/2000/svg">
<path d="M25.544 30.5667C26.8318 30.6452 28.1682 30.5321 29.3994 30.8384C32.3832 31.5796 34.3101 34.3624 34.2221 37.4718C34.197 38.3795 34.6242 38.9967 35.5193 39.3563C36.3045 39.6704 36.8196 39.2385 37.3017 38.7187C37.4964 38.5098 37.6755 38.2837 37.9063 38.012L40.6121 39.8227C38.7968 43.0075 36.0234 43.6168 32.7051 41.5863C30.7908 43.5697 28.4917 44.4523 25.7576 43.6906C23.0706 42.9415 21.5316 41.0586 20.8359 38.3638C20.2643 40.71 18.9844 42.461 16.7796 43.4299C15.229 44.1199 13.4709 44.1802 11.8767 43.598C10.292 43.0396 8.97466 41.9069 8.18513 40.4238C7.3956 38.9407 7.19144 37.2153 7.61305 35.5889C8.582 31.8795 11.7856 30.0783 16.2095 30.8117L17.2255 28.9978L19.6974 31.8843L19.1807 32.5234L20.8375 35.9249L22.4911 32.525C21.4688 31.3425 20.3287 30.0516 19.2168 28.7372C16.5267 25.5586 13.9591 22.2859 11.8029 18.7148C9.87601 15.5206 8.5553 12.1285 8.92434 8.31864C9.03898 7.11884 9.46928 5.93789 9.86659 4.78521C9.98437 4.44129 10.4665 4 10.7837 4C11.1009 4 11.5328 4.42715 11.715 4.77107C16.1435 13.134 20.5559 21.5049 24.952 29.8836C25.109 30.1835 25.2755 30.4772 25.4372 30.774L25.544 30.5667ZM10.7821 37.2771C10.7978 38.1635 11.1618 39.0081 11.7955 39.6282C12.4291 40.2483 13.2814 40.5941 14.168 40.5906C15.0547 40.5717 15.8989 40.2063 16.5194 39.5725C17.14 38.9387 17.4876 38.0871 17.4878 37.2001C17.4709 36.3152 17.1064 35.4725 16.4731 34.8542C15.8398 34.2359 14.9886 33.8917 14.1036 33.896C13.2161 33.9063 12.3689 34.268 11.7475 34.9017C11.1262 35.5354 10.7813 36.3896 10.7884 37.2771H10.7821ZM30.8834 37.2347C30.8797 36.3477 30.5249 35.4984 29.8965 34.8724C29.2682 34.2464 28.4175 33.8948 27.5306 33.8944C26.6442 33.9018 25.7963 34.2573 25.1696 34.8842C24.543 35.5111 24.1879 36.3593 24.1809 37.2456C24.192 38.1327 24.5499 38.9801 25.178 39.6065C25.8061 40.2328 26.6545 40.5884 27.5416 40.5969C28.4286 40.5874 29.2764 40.2296 29.9019 39.6005C30.5274 38.9715 30.8805 38.1217 30.885 37.2347H30.8834ZM21.8755 27.0144C21.8799 26.8765 21.8567 26.739 21.8073 26.6102C21.7579 26.4813 21.6832 26.3636 21.5877 26.264C21.4922 26.1644 21.3777 26.0849 21.2511 26.0301C21.1244 25.9753 20.9881 25.9463 20.8501 25.945C20.2454 25.9654 19.8764 26.3062 19.801 26.906C19.7914 27.0435 19.8092 27.1816 19.8533 27.3122C19.8974 27.4428 19.967 27.5633 20.0579 27.6669C20.1489 27.7704 20.2595 27.8549 20.3834 27.9154C20.5072 27.9759 20.6418 28.0113 20.7794 28.0195C21.0575 28.0289 21.3282 27.929 21.5334 27.7411C21.7387 27.5531 21.8621 27.2923 21.8771 27.0144H21.8755Z" fill="#F25278"/>
<path d="M24.7645 25.9319C23.7736 24.0474 22.8502 22.3278 21.9614 20.5925C21.9194 20.4783 21.901 20.3568 21.9075 20.2353C21.914 20.1138 21.9451 19.9949 21.999 19.8858C24.675 14.7747 27.3662 9.67186 30.0725 4.57744C30.2202 4.29948 30.6222 3.96341 30.8782 3.9854C31.1922 4.0121 31.5895 4.32618 31.7466 4.62299C32.8459 6.68651 33.1003 8.94006 32.67 11.1763C32.3248 13.0451 31.7564 14.8657 30.9771 16.599C29.4208 19.9722 27.128 22.901 24.7645 25.9319Z" fill="#F25278"/>
</svg>
