<svg width="48" height="48" viewBox="0 0 48 48" fill="none" xmlns="http://www.w3.org/2000/svg">
<path d="M23.9916 4.00208C27.9851 4.00208 31.9798 4.00208 35.9759 4.00208C37.8846 4.00208 38.5768 4.69037 38.5868 6.57116C38.5868 7.50354 38.6048 8.43593 38.5868 9.37232C38.5528 10.7729 37.8166 11.5852 36.4381 11.5873C28.1485 11.6073 19.8595 11.6073 11.5712 11.5873C10.1908 11.5873 9.44849 10.7869 9.41648 9.37633C9.39047 8.3459 9.39447 7.31147 9.41648 6.28104C9.44649 4.77441 10.1968 4.01609 11.7173 4.01009C15.8027 3.99208 19.8982 4.00409 23.9916 4.00208Z" fill="#F25278"/>
<path d="M17.1143 13.2031C17.8806 13.2031 18.6469 13.2031 19.4131 13.2031C19.8673 13.2031 20.0133 13.3812 19.8573 13.8214C19.6872 14.2916 19.5612 14.7758 19.3871 15.244C18.0146 18.9315 18.0006 22.585 19.5112 26.2486C20.7813 29.2262 20.8785 32.5741 19.7833 35.6205C18.7329 38.6357 16.6902 40.8787 14.1813 42.7234C13.0869 43.5238 11.7804 43.8699 10.434 43.97C10.2079 43.988 9.93976 44.036 9.78571 43.8179C9.58564 43.5278 9.83372 43.3177 9.98578 43.1136C10.618 42.2132 11.2963 41.3449 11.8985 40.4265C14.8535 35.9106 15.5217 31.0626 13.565 26.0325C12.2026 22.529 12.0525 19.1396 13.353 15.6281C14.2393 13.2271 14.1773 13.2031 16.7302 13.2031H17.1303H17.1143Z" fill="#F25278"/>
<path d="M25.2025 43.9783C24.9765 43.9783 24.7104 44.0443 24.5603 43.8122C24.3603 43.5181 24.6263 43.312 24.7604 43.1079C25.2986 42.3456 25.8648 41.6033 26.393 40.835C29.468 36.3451 30.2603 31.4871 28.6358 26.2809C27.9495 24.08 27.1372 21.9151 27.6014 19.5521C28.0015 17.5513 28.7298 15.6525 29.3 13.7037C29.414 13.3135 29.6701 13.2015 30.0462 13.2035C31.4467 13.2035 32.8472 13.2235 34.2477 13.2035C34.868 13.1915 34.894 13.4896 34.7499 13.9538C34.4038 15.0683 34.0737 16.1847 33.7195 17.2952C32.8752 19.9283 32.8833 22.5514 33.9196 25.1224C35.2021 28.3238 35.8343 31.5651 34.7899 34.9646C33.8434 38.1254 31.7993 40.8444 29.0259 42.6318C27.8833 43.3918 26.5692 43.8546 25.2025 43.9783Z" fill="#F25278"/>
<path d="M24.5334 13.1999C25.0996 13.1999 25.6698 13.2419 26.23 13.1899C27.1463 13.1058 27.2064 13.482 26.9343 14.2283C26.204 16.2291 25.5617 18.252 25.5637 20.4309C25.5701 22.3656 25.9457 24.2813 26.6701 26.0752C29.093 32.1978 27.4864 38.1743 22.3286 42.268C21.1241 43.2312 19.6631 43.8192 18.1271 43.9587C17.847 43.9867 17.4869 44.1048 17.3148 43.7706C17.1688 43.4885 17.4449 43.2824 17.5909 43.0743C18.1671 42.258 18.7773 41.4737 19.3355 40.6393C22.4546 35.9954 23.0989 31.0253 21.0702 25.8071C19.8997 22.7959 19.5636 19.8346 20.7541 16.7674C21.0823 15.9301 21.3445 15.0684 21.5383 14.1903C21.7164 13.3759 22.1385 13.0938 22.9388 13.1899C23.4697 13.2232 24.0021 13.2265 24.5334 13.1999Z" fill="#F25278"/>
</svg>
