<svg width="48" height="48" viewBox="0 0 48 48" fill="none" xmlns="http://www.w3.org/2000/svg">
<path d="M30.1988 34.6031C29.472 34.6031 28.7389 34.5485 28.0152 34.6155C26.9374 34.7154 26.042 34.3332 25.1748 33.767C23.438 32.6419 22.1272 30.9684 21.4509 29.0126C20.7745 27.0568 20.7715 24.9311 21.4423 22.9734C22.8118 18.9991 26.7767 16.36 30.8492 16.7109C35.2166 17.0853 38.6777 20.2563 39.3812 24.5098C39.6879 26.449 39.3715 28.4355 38.4773 30.1834C37.5832 31.9313 36.1575 33.3504 34.4055 34.2365C33.9387 34.4483 33.4346 34.566 32.9222 34.5828C32.016 34.6374 31.1051 34.5984 30.1957 34.5984L30.1988 34.6031Z" fill="#F25278"/>
<path d="M30.2346 12.2266C35.6501 12.4496 39.8318 14.822 42.354 19.6542C44.8761 24.4864 44.4379 29.2702 41.4712 33.8356C41.1077 34.3956 40.6804 34.6623 39.9972 34.6155C39.2469 34.5609 38.4889 34.6155 37.7371 34.5906C37.5125 34.5812 37.2941 34.4346 37.0742 34.3394C37.1818 34.1491 37.252 33.9167 37.4048 33.7732C39.0145 32.2751 40.1252 30.3189 40.5868 28.169C41.8814 22.312 37.9352 16.5908 31.838 15.5052C26.2026 14.5007 20.5515 18.645 19.7451 24.3834C19.2351 28.0099 20.3332 31.0904 22.9177 33.6687C23.1033 33.8543 23.2078 34.1195 23.3497 34.3488C23.0752 34.433 22.8038 34.5734 22.5246 34.5921C21.9553 34.6295 21.372 34.536 20.8089 34.6186C19.7732 34.7746 19.1852 34.288 18.6813 33.4472C15.9346 28.8631 15.6211 24.1448 18.1822 19.4436C20.7434 14.7425 24.8846 12.4403 30.2346 12.2266Z" fill="#F25278"/>
<path d="M30.2497 35.9106H41.3241C43.2691 35.9106 43.9757 36.614 43.9445 38.531C43.9133 40.9814 42.1913 42.6613 39.6442 42.6706C35.1489 42.6878 30.6553 42.6706 26.1616 42.6706C24.3694 42.6706 22.5741 42.6847 20.7835 42.6706C17.9478 42.6425 16.1041 40.4869 16.5034 37.6684C16.6594 36.5766 17.5001 35.9152 18.801 35.9121C22.6172 35.9049 26.4335 35.9043 30.2497 35.9106ZM30.2326 39.9145C30.7785 39.9145 31.3353 39.98 31.8625 39.8849C32.1121 39.8396 32.4755 39.4887 32.4864 39.2703C32.4973 39.0519 32.123 38.6464 31.8984 38.6339C30.7858 38.5658 29.6702 38.5632 28.5574 38.6261C28.325 38.6402 28.1144 39.0286 27.8929 39.25C28.13 39.4746 28.3405 39.8396 28.6104 39.8927C29.1329 39.9878 29.6913 39.9161 30.2357 39.9145H30.2326Z" fill="#F25278"/>
<path d="M13.8278 17.9462C11.5256 17.9259 11.8906 18.2145 11.4335 15.9887C11.2354 15.0232 11.0483 14.0546 10.8549 13.0875C10.7628 12.6196 10.6006 12.1844 10.0095 12.3076C9.41831 12.4308 9.44639 12.8769 9.54154 13.3542C9.7833 14.496 10.0188 15.6393 10.2325 16.7857C10.401 17.6935 10.1888 17.8526 9.29666 17.9618C8.15959 18.1006 7.58091 17.6764 7.14417 16.6095C6.28942 14.496 5.27245 12.4464 4.33658 10.3704C3.6534 8.8621 3.99968 7.77182 5.4721 6.99349C9.63201 4.79266 13.8184 4.77082 17.9955 6.94202C19.5662 7.75934 19.9109 8.82622 19.1903 10.4203C18.2279 12.5463 17.2172 14.652 16.3172 16.8044C15.9491 17.6826 15.4655 18.1053 14.5156 17.9509C14.2868 17.932 14.0569 17.9304 13.8278 17.9462ZM12.5457 14.2776C12.7016 14.4196 12.8982 14.7627 13.1025 14.7643C13.3583 14.7643 13.781 14.5365 13.8465 14.3197C14.0929 13.5049 14.2662 12.6697 14.3644 11.8241C14.3893 11.6011 14.0742 11.2158 13.834 11.1269C13.6781 11.0661 13.2101 11.3437 13.1477 11.548C12.9013 12.3887 12.7593 13.2575 12.5457 14.2776Z" fill="#F25278"/>
<path d="M8.92258 32.7395C8.79312 30.353 8.65742 27.9666 8.54044 25.5786C8.49833 24.7113 8.69642 24.5054 9.55273 24.4992C11.0615 24.4898 12.5693 24.4898 14.0761 24.4992C14.8559 24.4992 15.0899 24.7566 15.0478 25.5505C14.7941 30.3764 14.5341 35.2024 14.2679 40.0283C14.1806 41.6192 13.1527 42.6799 11.7551 42.6549C10.3576 42.63 9.37804 41.5631 9.30161 39.9768C9.18463 37.5638 9.04736 35.1509 8.91945 32.7379L8.92258 32.7395Z" fill="#F25278"/>
<path d="M11.7528 23.2041C10.9495 23.2041 10.1462 23.1932 9.34294 23.2041C8.71904 23.215 8.3759 22.9655 8.36342 22.2979C8.34938 21.5991 8.28387 20.9019 8.24176 20.2031C8.20432 19.5948 8.46792 19.286 9.10119 19.2891C10.8887 19.2984 12.6757 19.2984 14.4621 19.2891C15.0408 19.2891 15.3481 19.5293 15.3262 20.1173C15.2982 20.8676 15.256 21.6178 15.217 22.3681C15.1859 22.9343 14.8848 23.2072 14.3171 23.2041C13.4623 23.1994 12.6076 23.2041 11.7528 23.2041Z" fill="#F25278"/>
</svg>
