<svg width="48" height="48" viewBox="0 0 48 48" fill="none" xmlns="http://www.w3.org/2000/svg">
<path d="M26.083 5.04688H33.0654C33.206 5.82773 33.3481 6.59452 33.4777 7.3582C33.6448 8.34832 34.0805 9.21663 34.8739 9.81476C37.5584 11.845 39.4262 14.4655 40.8083 17.4968C41.4221 18.843 42.1951 20.1158 42.8963 21.4214C43.0035 21.5998 43.098 21.7856 43.179 21.9773C43.418 22.6239 43.19 23.2736 42.6355 23.5062C41.9796 23.7811 41.522 23.4953 41.2144 22.9237C40.3742 21.362 39.5465 19.8003 38.7157 18.2464C38.6298 18.0902 38.547 17.9247 38.4611 17.7639C38.2425 17.3516 37.9926 16.9486 37.4413 17.2141C36.8635 17.4937 37.0009 17.9435 37.2461 18.401C38.6839 21.082 40.1186 23.765 41.5502 26.4501C42.1233 27.5245 42.0655 28.1914 41.3659 28.549C40.7053 28.8848 40.179 28.574 39.5996 27.4917C38.4106 25.2679 37.2242 23.0419 36.0404 20.8139C35.9546 20.6577 35.9077 20.425 35.775 20.3454C35.4625 20.1917 35.1395 20.0607 34.8083 19.9534C34.7302 20.2938 34.4866 20.7124 34.6037 20.9591C35.2627 22.3443 36.0092 23.6874 36.726 25.043C37.5589 26.6047 38.3877 28.1664 39.2123 29.7281C39.3147 29.9092 39.407 30.0958 39.4887 30.2872C39.7355 30.9119 39.5683 31.4382 38.9952 31.7567C38.4221 32.0753 37.9176 31.8692 37.5897 31.3429C36.965 30.3559 36.3262 29.3689 35.7656 28.3444C34.6412 26.2908 33.5651 24.2121 32.4688 22.1444C32.3954 22.007 32.3314 21.8649 32.2549 21.7275C32.0284 21.3167 31.7098 21.0575 31.2413 21.3214C30.7728 21.5853 30.8337 21.9851 31.0539 22.4006C32.3366 24.8118 33.6162 27.2242 34.8926 29.6375C34.9997 29.816 35.0931 30.0024 35.1721 30.195C35.3799 30.7916 35.2143 31.3023 34.6662 31.6006C34.118 31.8989 33.5995 31.7068 33.2481 31.1852C33.0702 30.898 32.9071 30.6019 32.7593 30.2981C31.3236 27.6442 29.8894 24.9893 28.4568 22.3334C28.2413 21.9367 28.0008 21.4323 27.4885 21.6822C27.2199 21.8149 27.0107 22.3225 26.9935 22.6723C26.9185 24.2059 26.9326 25.7426 26.8967 27.2793C26.8732 28.1758 26.4282 28.6755 25.7473 28.6411C25.0866 28.6068 24.6915 28.1086 24.6993 27.2559C24.7165 25.4334 24.7243 23.6093 24.7993 21.7899C24.8227 21.2027 25.0757 20.6311 25.1725 20.0424C25.424 18.5369 25.7832 17.033 25.8534 15.5134C26.0096 12.2635 26.0018 9.00736 26.0627 5.75276C26.0565 5.5513 26.0705 5.34672 26.083 5.04688Z" fill="#F25278"/>
<path d="M14.9444 5.0625H21.958C21.958 5.41857 21.958 5.7231 21.958 6.0292C22.0611 9.88037 22.1611 13.7315 22.2704 17.5858C22.2677 18.0027 22.3369 18.4169 22.475 18.8102C23.6056 21.6213 23.1652 24.562 23.298 27.4558C23.3308 28.1789 22.8404 28.6427 22.2251 28.6536C21.5817 28.6646 21.1319 28.2039 21.1178 27.4137C21.0741 25.8254 21.0913 24.2356 21.0148 22.6504C20.9976 22.3069 20.6884 21.9789 20.515 21.6431C20.2027 21.8587 19.7669 22.0039 19.6014 22.3022C17.9991 25.1882 16.4467 28.1039 14.8679 31.0056C14.4962 31.6896 13.8731 31.9114 13.3171 31.6068C12.7611 31.3023 12.6175 30.6292 12.9392 29.9686C12.9954 29.8515 13.0657 29.7406 13.1266 29.6266C14.3551 27.3059 15.5847 24.9847 16.8153 22.6629C16.8997 22.5068 17.0668 22.3272 17.0465 22.1804C17.0027 21.8836 16.9325 21.4557 16.7341 21.3527C16.5358 21.2496 16.1298 21.4167 15.8799 21.5713C15.7065 21.6791 15.644 21.9633 15.5316 22.1694C13.9262 25.0846 12.3192 27.9998 10.7106 30.915C10.6001 31.1222 10.4676 31.317 10.3155 31.496C9.94538 31.9192 9.41129 32.1003 9.00525 31.7396C8.69291 31.4632 8.55233 30.9306 8.47112 30.4902C8.43051 30.2622 8.67416 29.9733 8.80691 29.7203C10.2541 26.9863 11.7039 24.2522 13.1562 21.5182C13.2281 21.3808 13.2968 21.2402 13.3718 21.1044C13.6123 20.6671 13.6841 20.2267 13.1656 19.9706C12.6971 19.741 12.3848 20.019 12.1677 20.4391C11.7476 21.2465 11.315 22.0476 10.8886 22.8503C10.0453 24.4355 9.20669 26.0206 8.35868 27.6026C7.82145 28.6052 7.2655 28.902 6.61427 28.5475C5.96303 28.1929 5.87868 27.5386 6.3956 26.5735L10.5904 18.7321C10.6763 18.576 10.8465 18.4057 10.8356 18.2527C10.7858 17.9097 10.7106 17.571 10.6107 17.2391C10.2874 17.3594 9.82202 17.3859 9.67366 17.6202C9.18641 18.3526 8.81626 19.1632 8.40085 19.944C7.9136 20.8623 7.43105 21.7837 6.93911 22.7004C6.4909 23.5312 5.93022 23.8124 5.34301 23.5141C4.69647 23.1861 4.56219 22.4646 5.02133 21.6135C5.95836 19.8456 6.99062 18.1199 7.84175 16.3037C8.90058 14.0454 10.2968 12.0871 12.3098 10.6034C13.8965 9.43685 14.6524 7.86733 14.782 5.94799C14.8201 5.65012 14.8744 5.35452 14.9444 5.0625Z" fill="#F25278"/>
<path d="M11.6815 37.4658C9.22245 37.4396 6.81548 36.7541 4.71162 35.4808C4.27746 35.2216 3.7933 34.9327 4.17123 34.3252C4.51012 33.7786 4.95209 34.0128 5.38625 34.258C10.4243 37.0691 15.3546 36.6302 19.8867 32.9493C20.2615 32.637 20.6473 32.3918 21.0361 32.8353C21.4515 33.3038 21.1454 33.677 20.7613 34.0206C18.4218 36.1086 14.8736 37.4595 11.6815 37.4658Z" fill="#F25278"/>
<path d="M36.9948 37.4901C32.9188 37.3948 29.875 36.2407 27.2342 34.009C26.864 33.6967 26.5751 33.3328 26.9328 32.8846C27.37 32.3395 27.7886 32.6644 28.1821 33.0158C30.1702 34.8015 32.6997 35.8688 35.366 36.047C37.8724 36.2392 40.3757 35.6383 42.5217 34.3292C42.7419 34.198 43.0059 33.9871 43.212 34.0168C43.4681 34.0605 43.8539 34.3026 43.8804 34.4994C43.9148 34.7571 43.7242 35.1943 43.5025 35.3099C42.4483 35.8612 41.3879 36.4453 40.2604 36.7982C39.0204 37.198 37.6945 37.3511 36.9948 37.4901Z" fill="#F25278"/>
<path d="M11.8624 42.9473C9.28239 42.9826 6.77699 42.0821 4.8097 40.4126C4.69101 40.3127 4.57388 40.2081 4.45832 40.1003C4.08195 39.7583 3.78211 39.3741 4.23813 38.9103C4.65355 38.4886 5.03302 38.7369 5.38596 39.0664C6.61765 40.2418 8.16757 41.0292 9.84308 41.3309C12.5683 41.8307 15.1701 41.3403 17.7079 40.3408C17.8515 40.2846 18.0077 40.1456 18.1342 40.1706C18.4698 40.2543 18.7999 40.3586 19.1227 40.4829C18.9666 40.7953 18.8901 41.3153 18.6542 41.395C17.2097 41.8884 15.7417 42.332 14.258 42.6927C13.4881 42.8864 12.662 42.8708 11.8624 42.9473Z" fill="#F25278"/>
<path d="M36.0121 42.903C33.8401 42.8739 31.6944 42.4241 29.6934 41.5787C29.2078 41.3772 28.6206 41.1789 28.9298 40.4855C29.2093 39.8608 29.7106 40.0982 30.1948 40.2934C32.9246 41.3975 35.7279 41.9004 38.6514 41.2304C40.1025 40.8934 41.4389 40.1797 42.526 39.1612C42.9024 38.8145 43.3069 38.4194 43.7754 38.9363C44.2907 39.4969 43.8019 39.8733 43.4084 40.2247C41.3344 42.0425 38.9122 42.9561 36.0121 42.903Z" fill="#F25278"/>
</svg>
