<svg width="48" height="48" viewBox="0 0 48 48" fill="none" xmlns="http://www.w3.org/2000/svg">
<path d="M23.9873 11.3906C30.1354 19.4205 30.2238 27.9335 24.003 36.0636C21.6714 32.962 19.9841 29.6405 19.5088 25.7945C18.8409 20.3712 20.8111 15.7473 23.9873 11.3906Z" fill="#F25278"/>
<path d="M26.0469 36.5171C26.2433 36.1871 26.426 35.8886 26.6145 35.5998C28.1892 33.2282 29.352 30.6077 30.054 27.8489C30.2022 27.2952 30.499 26.7925 30.9123 26.3954C33.7075 23.7554 37.1469 22.5376 40.8829 22.0386C41.9121 21.9031 42.9532 21.856 44.006 21.7656C43.4226 29.7641 34.1828 37.3402 26.0469 36.5171Z" fill="#F25278"/>
<path d="M21.8924 36.5052C14.2475 37.6366 4.95463 30.0467 4 21.7969C9.08152 21.9678 13.7761 23.0854 17.5415 26.7704C17.7097 26.9233 17.8309 27.1208 17.8912 27.34C18.5433 30.634 20.0185 33.5608 21.8727 36.3225C21.9081 36.3677 21.8924 36.4423 21.8924 36.5052Z" fill="#F25278"/>
<path d="M35.4036 13.7344C35.8986 16.3625 36.1481 18.645 35.8475 20.9628C35.8244 21.0657 35.7804 21.1627 35.7182 21.2478C35.656 21.333 35.577 21.4044 35.4861 21.4578C33.8499 22.3123 32.2019 23.1412 30.6717 23.919C30.3712 22.1846 30.0353 20.3087 29.7387 18.4289C29.7261 18.3062 29.7411 18.1822 29.7826 18.066C29.824 17.9497 29.8909 17.8442 29.9783 17.7572C31.7147 16.447 33.461 15.1683 35.4036 13.7344Z" fill="#F25278"/>
<path d="M17.3624 23.9191C15.8597 23.1491 14.2628 22.3477 12.6776 21.5109C12.4812 21.4049 12.2239 21.1908 12.1964 20.9983C11.8683 18.6765 12.1532 16.3882 12.6089 13.7188C14.5731 15.1762 16.3409 16.455 18.0636 17.7749C18.2364 17.9065 18.317 18.2974 18.2797 18.5429C17.9909 20.3756 17.6609 22.2004 17.3624 23.9191Z" fill="#F25278"/>
</svg>
