<svg width="48" height="48" viewBox="0 0 48 48" fill="none" xmlns="http://www.w3.org/2000/svg">
<path d="M12.4961 43.9919V43.1816C12.4961 35.8351 12.4961 28.4876 12.4961 21.139C12.4961 18.1968 13.3827 15.5548 15.3015 13.2649C15.4487 13.0881 15.6215 12.9254 15.8968 12.622C15.9176 13.013 15.9416 13.2477 15.9416 13.4885C15.9416 16.3557 15.9416 19.2213 15.9416 22.0916C15.9528 26.1773 18.8621 29.0272 23.0326 29.021C24.4729 29.021 25.9291 29.0992 27.3374 28.8849C30.6309 28.3828 32.9193 25.7127 32.9625 22.4529C33.0025 19.5091 32.9737 16.5637 32.9737 13.6199V12.5234C33.3402 12.9145 33.5738 13.1366 33.7739 13.3822C35.4788 15.4187 36.4096 17.9695 36.408 20.6009C36.4384 28.2358 36.4208 35.869 36.4192 43.5038C36.4192 43.6603 36.3968 43.8057 36.3824 43.9981L12.4961 43.9919ZM19.3775 40.6461H29.5187V39.074H19.3775V40.6461ZM29.5539 35.772H19.3918V37.2815H29.5539V35.772Z" fill="#F25278"/>
<path d="M31.309 16.4808C31.309 18.3312 31.309 20.1817 31.309 22.0321C31.2946 25.2246 29.1534 27.3269 25.9079 27.3504C24.8677 27.3504 23.8275 27.366 22.7873 27.3504C19.8987 27.3019 17.6871 25.2559 17.6407 22.4341C17.5751 18.4736 17.5607 14.5099 17.6407 10.5463C17.6527 9.66992 17.8422 8.80458 18.1983 8.00023C18.5544 7.19589 19.07 6.46846 19.7153 5.85996C20.3606 5.25146 21.1229 4.77395 21.9581 4.455C22.7933 4.13604 23.6848 3.98197 24.5812 4.00168C28.2764 4.04548 31.2274 6.97364 31.3026 10.698C31.3394 12.6219 31.309 14.5522 31.309 16.4808Z" fill="#F25278"/>
<path d="M9.1549 11.4997C9.19171 12.8684 10.0543 13.8335 11.3842 13.9884C11.9667 14.0556 12.4772 14.1557 12.4836 14.844C12.49 15.5322 11.9651 15.6527 11.3937 15.7215C10.1279 15.8779 9.25893 16.7179 9.12451 17.9692C9.06369 18.5245 8.90846 18.9797 8.27953 19.0001C7.5898 19.0235 7.42977 18.5308 7.35775 17.9552C7.19772 16.6788 6.37837 15.8701 5.08691 15.7199C4.5076 15.6527 3.98589 15.5088 4.00029 14.8362C4.01469 14.1636 4.53 14.0541 5.12051 13.9868C5.57583 13.9482 6.01094 13.7855 6.37642 13.5173C6.74191 13.2491 7.02313 12.8861 7.18813 12.4695C7.40737 11.9737 7.53379 11.5044 6.94488 11.1009C6.83729 11.0063 6.74993 10.8917 6.68785 10.764C6.62578 10.6362 6.59022 10.4976 6.5832 10.3563C6.53502 9.47057 6.53502 8.58295 6.5832 7.6972C6.62481 6.97454 7.0937 6.55377 7.83464 6.52405C8.68601 6.4912 9.54058 6.49277 10.3951 6.52405C11.1489 6.55221 11.6274 7.03242 11.6562 7.77541C11.685 8.5184 11.6722 9.28642 11.6562 10.0419C11.6434 11.0242 11.1857 11.4716 10.1903 11.4935C9.83823 11.506 9.49737 11.4997 9.1549 11.4997ZM9.05729 9.90584C9.85744 10.0247 10.1039 9.53825 10.0799 9.1691C10.0559 8.79995 9.75982 8.18679 9.45736 8.10545C8.65721 7.8849 8.1051 8.26187 8.1003 8.93291C8.0955 9.60395 8.34835 10.1561 9.05729 9.90584Z" fill="#F25278"/>
<path d="M43.988 8.36647C43.6759 8.5792 43.3911 8.91394 43.0518 8.9812C41.2915 9.32845 40.8114 9.79614 40.4385 11.5308C40.3713 11.8437 39.912 12.2582 39.6383 12.2613C39.3647 12.2644 38.8382 11.8421 38.8062 11.5605C38.6061 9.97446 37.7612 9.15169 36.1369 8.96243C35.8488 8.92958 35.4519 8.45563 35.3975 8.1381C35.3111 7.62973 35.7576 7.356 36.2617 7.32472C37.4171 7.24807 38.2125 6.69904 38.6109 5.63852C38.7102 5.37573 38.6381 5.03161 38.7822 4.81262C38.9886 4.49979 39.2895 4.10561 39.6111 4.03991C40.1136 3.93668 40.4001 4.33242 40.4801 4.84078C40.7394 6.48475 41.2803 6.97277 43.0214 7.34349C43.3799 7.42013 43.6775 7.7752 44.0024 8.00201C43.9928 8.12558 43.9896 8.24603 43.988 8.36647Z" fill="#F25278"/>
</svg>
